<svg xmlns="http://www.w3.org/2000/svg" viewBox="0 0 64 64" role="img" aria-label="Hotel icon">
  <rect width="64" height="64" rx="16" fill="#0f172a"/>
  <path d="M18 54V18c0-3.3 2.7-6 6-6h16c3.3 0 6 2.7 6 6v36" fill="#f8fafc"/>
  <path d="M12 54h40" stroke="#38bdf8" stroke-width="4" stroke-linecap="round"/>
  <path d="M24 22h5M35 22h5M24 31h5M35 31h5M24 40h5M35 40h5" stroke="#2563eb" stroke-width="4" stroke-linecap="round"/>
  <path d="M28 54V45c0-2.2 1.8-4 4-4s4 1.8 4 4v9" fill="#0f172a"/>
  <path d="M25 12V8h14v4" stroke="#38bdf8" stroke-width="4" stroke-linecap="round" stroke-linejoin="round"/>
</svg>
